<svg xmlns="http://www.w3.org/2000/svg" xmlns:xlink="http://www.w3.org/1999/xlink" width="500" zoomAndPan="magnify" viewBox="0 0 375 374.999991" height="500" preserveAspectRatio="xMidYMid meet" version="1.0"><defs><g/></defs><g fill="#b9b9b9" fill-opacity="1"><g transform="translate(7.013676, 296.497781)"><g><path d="M 226.265625 0 L 10.9375 0 L 10.9375 -12.5 C 17.8125 -12.707031 23.4375 -13.332031 27.8125 -14.375 C 32.1875 -15.414062 35.519531 -17.1875 37.8125 -19.6875 C 40.101562 -22.1875 41.664062 -25.726562 42.5 -30.3125 C 43.332031 -34.894531 43.75 -40.832031 43.75 -48.125 L 43.75 -192.515625 C 43.75 -199.804688 43.382812 -205.691406 42.65625 -210.171875 C 41.925781 -214.648438 40.519531 -218.191406 38.4375 -220.796875 C 36.351562 -223.398438 33.382812 -225.171875 29.53125 -226.109375 C 25.675781 -227.046875 20.625 -227.722656 14.375 -228.140625 L 14.375 -240.640625 L 122.1875 -240.640625 L 122.1875 -228.140625 C 115.101562 -227.929688 109.425781 -227.304688 105.15625 -226.265625 C 100.882812 -225.222656 97.601562 -223.347656 95.3125 -220.640625 C 93.019531 -217.929688 91.507812 -214.179688 90.78125 -209.390625 C 90.050781 -204.597656 89.6875 -198.242188 89.6875 -190.328125 L 89.6875 -59.375 C 89.6875 -50.625 90.570312 -43.488281 92.34375 -37.96875 C 94.113281 -32.445312 97.1875 -28.175781 101.5625 -25.15625 C 105.9375 -22.132812 111.769531 -20.050781 119.0625 -18.90625 C 126.351562 -17.757812 135.414062 -17.1875 146.25 -17.1875 C 158.34375 -17.1875 168.453125 -17.914062 176.578125 -19.375 C 184.703125 -20.832031 191.523438 -23.59375 197.046875 -27.65625 C 202.566406 -31.71875 206.992188 -37.1875 210.328125 -44.0625 C 213.660156 -50.9375 216.472656 -59.894531 218.765625 -70.9375 L 231.265625 -70.9375 Z M 226.265625 0 "/></g></g></g><g fill="#6e66f8" fill-opacity="1"><g transform="translate(240.779286, 296.497781)"><g><path d="M 40.625 -192.515625 C 40.625 -199.804688 40.257812 -205.691406 39.53125 -210.171875 C 38.800781 -214.648438 37.394531 -218.191406 35.3125 -220.796875 C 33.226562 -223.398438 30.257812 -225.171875 26.40625 -226.109375 C 22.550781 -227.046875 17.394531 -227.722656 10.9375 -228.140625 L 10.9375 -240.640625 L 116.25 -240.640625 L 116.25 -228.140625 C 109.789062 -227.929688 104.582031 -227.304688 100.625 -226.265625 C 96.664062 -225.222656 93.644531 -223.347656 91.5625 -220.640625 C 89.476562 -217.929688 88.125 -214.179688 87.5 -209.390625 C 86.875 -204.597656 86.5625 -198.242188 86.5625 -190.328125 L 86.5625 0.625 C 86.5625 26.875 79.894531 46.875 66.5625 60.625 C 53.226562 74.375 33.332031 81.25 6.875 81.25 C -12.082031 81.25 -26.71875 78.019531 -37.03125 71.5625 C -47.34375 65.101562 -52.5 56.875 -52.5 46.875 C -52.5 40.832031 -50.570312 36.195312 -46.71875 32.96875 C -42.863281 29.738281 -38.125 28.125 -32.5 28.125 C -27.707031 28.125 -23.90625 29.375 -21.09375 31.875 C -18.28125 34.375 -14.789062 39.0625 -10.625 45.9375 C -6.457031 52.8125 -2.707031 57.394531 0.625 59.6875 C 3.957031 61.976562 8.019531 63.125 12.8125 63.125 C 21.769531 63.125 28.644531 58.226562 33.4375 48.4375 C 38.226562 38.644531 40.625 24.894531 40.625 7.1875 Z M 40.625 -192.515625 "/></g></g></g></svg>